PathFileType  4	(X/Y/Z) C:\Users\antoi\Documents\MyRepositories\mobilecap\ResultsAnalysis
DataRate	CameraRate	NumFrames	NumMarkers	Units	OrigDataRate	OrigDataStartFrame	OrigNumFrames
100.0	100.0	4	55	mm	100.0	529	704
Frame#	Time	r_knee			r_shank_antsup			r_ankle			r_calc			r_5meta			r_toe			L_knee			L_shank_antsup			L_ankle			L_calc			L_5meta			L_toe			r_mknee			r_mankle			L_mknee			L_mankle			r_sh2			r_sh3			r_sh4			L_sh2			L_sh3			r_thigh1			r_thigh2			r_thigh3			r_thigh4			r_thigh5			L_thigh1			L_thigh2			L_thigh3			L_thigh4			r.ASIS			r.PSIS			L.ASIS			L.PSIS			C7			R_Shoulder			L_Shoulder			R_Sternum			L_Sternum			R_humerus			R_elbow_med			R_elbow_lat			R_forearm			R_wrist_radius			R_wrist_ulna			L_humerus			L_elbow_med			L_elbow_lat			L_forearm			L_wrist_radius			L_wrist_ulna			R_HJC			L_HJC			R_HJC_reg			L_HJC_reg			
		X1	Y1	Z1	X2	Y2	Z2	X3	Y3	Z3	X4	Y4	Z4	X5	Y5	Z5	X6	Y6	Z6	X7	Y7	Z7	X8	Y8	Z8	X9	Y9	Z9	X10	Y10	Z10	X11	Y11	Z11	X12	Y12	Z12	X13	Y13	Z13	X14	Y14	Z14	X15	Y15	Z15	X16	Y16	Z16	X17	Y17	Z17	X18	Y18	Z18	X19	Y19	Z19	X20	Y20	Z20	X21	Y21	Z21	X22	Y22	Z22	X23	Y23	Z23	X24	Y24	Z24	X25	Y25	Z25	X26	Y26	Z26	X27	Y27	Z27	X28	Y28	Z28	X29	Y29	Z29	X30	Y30	Z30	X31	Y31	Z31	X32	Y32	Z32	X33	Y33	Z33	X34	Y34	Z34	X35	Y35	Z35	X36	Y36	Z36	X37	Y37	Z37	X38	Y38	Z38	X39	Y39	Z39	X40	Y40	Z40	X41	Y41	Z41	X42	Y42	Z42	X43	Y43	Z43	X44	Y44	Z44	X45	Y45	Z45	X46	Y46	Z46	X47	Y47	Z47	X48	Y48	Z48	X49	Y49	Z49	X50	Y50	Z50	X51	Y51	Z51	X52	Y52	Z52	X53	Y53	Z53	X54	Y54	Z54	X55	Y55	Z55	

529	5.28000000	-211.32870	500.90154	-443.79073	-180.17989	457.92725	-449.15564	-261.87145	96.37659	-469.98355	-317.64893	59.14178	-523.04309	-142.57625	40.83424	-425.94071	-96.08440	60.52328	-478.00699	-206.65098	497.49762	-785.94692	-191.53693	415.01298	-797.96731	-262.28044	98.16016	-752.27481	-322.67146	57.64838	-699.22826	-145.63418	41.42569	-781.79415	-101.00951	59.09160	-728.93441	-219.87946	489.01706	-568.35235	-227.57501	108.83698	-547.40738	-208.32451	486.48064	-659.59395	-232.13099	110.96181	-672.29307	-188.53205	342.79279	-460.21058	-249.37376	459.02553	-414.01364	-256.98348	342.45487	-411.60871	-277.86617	431.97368	-809.52198	-288.60788	310.11853	-804.60029	-77.63344	783.64903	-510.44956	-87.10870	672.61565	-498.07687	-114.52659	660.75616	-435.48817	-142.79692	800.94345	-420.24517	-158.86521	687.71567	-409.92034	-118.85197	821.02696	-791.95555	-133.25424	677.14029	-801.55266	-231.98101	826.80917	-789.80923	-244.87833	688.27963	-784.33385	-81.99223	969.58974	-487.16082	-270.74310	1000.29052	-565.21652	-78.82224	956.97601	-725.87594	-270.97274	999.48037	-663.74687	-260.04981	1456.97041	-620.50577	-197.01551	1431.47321	-455.52362	-209.16980	1424.41972	-779.82874	-131.41446	1383.67803	-600.66986	-131.57197	1383.08579	-637.91332	-183.45766	1196.61640	-363.75234	-226.61929	1103.18878	-402.31880	-210.77450	1108.50694	-343.78714	-156.59919	984.13713	-298.69243	-114.14839	885.30541	-291.13192	-156.13949	882.53828	-275.82033	-209.70641	1197.18323	-872.75788	-215.58724	1091.68426	-818.61421	-231.37293	1097.35885	-876.45947	-184.84901	979.55670	-940.89818	-135.33246	883.01881	-963.52678	-175.64884	871.90390	-957.57470	-154.95347	886.50697	-521.57726	-164.92524	887.91092	-711.98254	-149.47195	891.75370	-519.57332	-149.83974	890.45635	-677.35314	
530	5.29000000	-211.31588	500.92353	-443.40499	-180.18790	457.94722	-449.16524	-261.86022	96.35319	-469.99581	-317.65958	59.16018	-523.03143	-142.59190	40.83118	-425.93702	-96.05270	60.54958	-478.02692	-206.62797	497.52588	-785.94365	-191.50235	415.03817	-797.95815	-262.28052	98.17752	-752.26443	-322.67524	57.67948	-699.21055	-145.65717	41.45669	-781.75795	-101.00836	59.10206	-728.89949	-219.87377	489.01676	-568.34310	-227.56036	108.85939	-547.36280	-208.34808	486.51678	-659.57667	-232.14118	110.96548	-672.29137	-188.50865	342.83492	-460.20520	-249.39748	459.05396	-414.02829	-256.99326	342.52372	-411.55778	-277.83158	431.99712	-809.49475	-288.49498	310.05044	-804.74358	-77.61026	783.64653	-510.41139	-87.06457	672.66378	-497.96475	-114.51345	660.72856	-435.45319	-142.76242	800.96319	-420.22481	-158.77772	687.63336	-410.01365	-118.75345	821.04316	-791.99329	-133.19443	677.14122	-801.48951	-231.88814	826.77644	-789.68106	-244.82193	688.26651	-784.30277	-81.94964	969.62271	-487.08358	-270.67315	1000.27502	-565.17785	-78.75271	956.97429	-725.89151	-271.01495	999.48918	-663.68297	-259.97005	1456.99690	-620.46006	-196.91647	1431.48441	-455.49161	-209.08410	1424.42430	-779.86483	-131.31065	1383.64239	-600.61691	-131.49846	1383.09541	-637.87943	-183.39374	1196.61326	-363.75655	-226.64355	1103.19994	-402.28820	-210.70576	1108.53955	-343.79054	-156.54712	984.18802	-298.59693	-114.08691	885.41559	-291.02686	-156.10212	882.51585	-275.83939	-209.63289	1197.20695	-872.79772	-215.49260	1091.64296	-818.55563	-231.29529	1097.37193	-876.48391	-184.76788	979.57516	-940.92644	-135.26811	883.02885	-963.55190	-175.61897	871.91319	-957.66100	-154.89583	886.52199	-521.53198	-164.88786	887.91172	-711.93630	-149.31296	891.70509	-519.44975	-149.86067	890.44594	-677.29205	
531	5.30000000	-211.32284	500.92177	-443.43006	-180.23711	457.87110	-449.16803	-261.85848	96.37684	-469.99731	-317.66423	59.17542	-523.02296	-142.60706	40.86028	-425.94277	-96.02934	60.57715	-478.01703	-206.60492	497.56397	-785.96440	-191.47555	415.05486	-797.94482	-262.28399	98.19597	-752.25153	-322.67350	57.70826	-699.18777	-145.62712	41.49014	-781.77057	-101.01125	59.10285	-728.86054	-219.87129	489.01696	-568.33880	-227.54807	108.88322	-547.34111	-208.33819	486.51967	-659.57258	-232.14599	110.96920	-672.28851	-188.51331	342.84329	-460.16595	-249.34393	459.12730	-413.96172	-256.99753	342.59268	-411.46148	-277.78637	432.04629	-809.47669	-288.48644	309.94021	-804.71699	-77.56342	783.64248	-510.38278	-87.00603	672.73787	-497.80240	-114.51688	660.71067	-435.45058	-142.74583	800.95730	-420.23162	-158.71769	687.54706	-410.03206	-118.60965	821.06948	-792.07341	-133.15074	677.14765	-801.47025	-231.82118	826.74860	-789.60637	-244.76484	688.24989	-784.23047	-81.91101	969.65599	-487.02601	-270.64251	1000.28917	-565.20432	-78.69859	956.98068	-725.89615	-271.02680	999.50716	-663.68945	-259.89245	1457.03152	-620.44640	-196.84702	1431.50250	-455.46075	-209.00273	1424.40404	-779.84400	-131.24484	1383.61050	-600.62338	-131.50517	1382.85675	-638.08918	-183.33043	1196.62408	-363.75088	-226.71182	1103.19893	-402.25800	-210.64860	1108.53991	-343.76456	-156.51837	984.20958	-298.59217	-114.03701	885.46382	-290.91322	-156.10627	882.53742	-275.70574	-209.53326	1197.23752	-872.87458	-215.46921	1091.64725	-818.61031	-231.22121	1097.40469	-876.58054	-184.69844	979.57542	-940.93679	-135.21961	883.03756	-963.58432	-175.59171	871.91792	-957.69801	-154.87187	886.54990	-521.51541	-164.84547	887.92001	-711.92085	-149.23483	891.69866	-519.37489	-149.85086	890.44502	-677.25906	
532	5.31000000	-211.28651	500.97008	-443.71796	-180.26576	457.80729	-449.15656	-261.85946	96.40557	-469.99129	-317.66079	59.19053	-523.01832	-142.59799	40.86930	-425.93166	-96.04091	60.56913	-478.00517	-206.57444	497.59279	-785.97440	-191.45466	415.07115	-797.93612	-262.29192	98.19867	-752.23997	-322.67011	57.72884	-699.16799	-145.58545	41.49671	-781.79065	-101.01233	59.10667	-728.84735	-219.87180	489.01729	-568.33937	-227.54118	108.91143	-547.34359	-208.20053	486.36336	-659.64532	-232.13378	110.96288	-672.28875	-188.50538	342.86162	-460.14449	-249.27370	459.16140	-413.88230	-257.00993	342.59096	-411.42317	-277.73338	432.10246	-809.47836	-288.50742	309.93139	-804.68942	-77.51860	783.64719	-510.37501	-86.95767	672.78639	-497.71257	-114.51705	660.73580	-435.47710	-142.70664	800.95525	-420.22162	-158.70250	687.53084	-410.00345	-118.52645	821.08328	-792.11904	-133.10746	677.15345	-801.46044	-231.77763	826.77924	-789.60968	-244.72989	688.25376	-784.19799	-81.87693	969.65703	-487.02064	-270.60821	1000.33742	-565.26797	-78.63920	956.96879	-725.87121	-270.93801	999.48551	-663.71860	-259.80416	1457.06963	-620.47659	-196.79772	1431.51191	-455.48996	-208.90615	1424.36535	-779.80017	-131.17810	1383.61641	-600.64409	-131.56576	1382.44824	-638.47723	-183.29929	1196.65620	-363.72073	-226.74888	1103.21705	-402.24515	-210.60917	1108.54060	-343.71894	-156.50022	984.22246	-298.59333	-114.03379	885.49203	-290.84588	-156.07733	882.59804	-275.58184	-209.45130	1197.25062	-872.91484	-215.46277	1091.68249	-818.69058	-231.13969	1097.41187	-876.62021	-184.64280	979.55366	-940.95616	-135.24160	883.11492	-963.78396	-175.56906	871.92162	-957.71910	-154.85005	886.56598	-521.51057	-164.77820	887.90608	-711.91858	-149.26885	891.79457	-519.35323	-149.79764	890.42840	-677.22441	
